<?xml version="1.0" encoding="UTF-8" standalone="no"?>
<svg
   xmlns:dc="http://purl.org/dc/elements/1.1/"
   xmlns:cc="http://creativecommons.org/ns#"
   xmlns:rdf="http://www.w3.org/1999/02/22-rdf-syntax-ns#"
   xmlns:svg="http://www.w3.org/2000/svg"
   xmlns="http://www.w3.org/2000/svg"
   xmlns:sodipodi="http://sodipodi.sourceforge.net/DTD/sodipodi-0.dtd"
   xmlns:inkscape="http://www.inkscape.org/namespaces/inkscape"
   viewBox="0 0 383.98111 384"
   version="1.1"
   id="svg4"
   sodipodi:docname="ios-person.svg"
   width="383.98111"
   height="384"
   inkscape:version="0.92.4 (5da689c313, 2019-01-14)">
  <metadata
     id="metadata10">
    <rdf:RDF>
      <cc:Work
         rdf:about="">
        <dc:format>image/svg+xml</dc:format>
        <dc:type
           rdf:resource="http://purl.org/dc/dcmitype/StillImage" />
      </cc:Work>
    </rdf:RDF>
  </metadata>
  <defs
     id="defs8" />
  <sodipodi:namedview
     pagecolor="#ffffff"
     bordercolor="#666666"
     borderopacity="1"
     objecttolerance="10"
     gridtolerance="10"
     guidetolerance="10"
     inkscape:pageopacity="0"
     inkscape:pageshadow="2"
     inkscape:window-width="1304"
     inkscape:window-height="745"
     id="namedview6"
     showgrid="false"
     inkscape:zoom="0.4609375"
     inkscape:cx="-58.585794"
     inkscape:cy="192"
     inkscape:window-x="54"
     inkscape:window-y="-8"
     inkscape:window-maximized="1"
     inkscape:current-layer="svg4" />
  <path
     d="m 383.79048,374.3 c -7.2,-31.8 -48.3,-47.3 -62.5,-52.3 -15.6,-5.5 -37.8,-6.8 -52.1,-10 -8.2,-1.8 -20.1,-6.3 -24.1,-11.1 -4,-4.8 -1.6,-49.3 -1.6,-49.3 0,0 7.4,-11.5 11.4,-21.7 4,-10.1 8.4,-37.9 8.4,-37.9 0,0 8.2,0 11.1,-14.4 3.1,-15.7 8,-21.8 7.4,-33.5 -0.6,-11.5 -6.9,-11.2 -6.9,-11.2 0,0 6.1,-16.7 6.8,-51.3 0.9,-41.1 -31.3,-81.6 -89.6,-81.6 -59.1,0 -90.6,40.5 -89.7,81.6 0.8,34.6 6.7,51.3 6.7,51.3 0,0 -6.3,-0.3 -6.9,11.2 -0.6,11.7 4.3,17.8 7.4,33.5 2.8,14.4 11.1,14.4 11.1,14.4 0,0 4.4,27.8 8.4,37.9 4,10.2 11.4,21.7 11.4,21.7 0,0 2.4,44.5 -1.6,49.3 -4,4.8 -15.9,9.3 -24.1,11.1 -14.3,3.2 -36.500002,4.5 -52.100002,10 -14.2,5 -55.3000004,20.5 -62.50000037,52.3 -1.1,5 2.69999997,9.7 7.89999997,9.7 H 375.99048 c 5.1,0 8.9,-4.7 7.8,-9.7 z"
     id="path2"
     inkscape:connector-curvature="0" />
</svg>
